<?xml version="1.0" encoding="UTF-8" standalone="no"?><!DOCTYPE svg PUBLIC "-//W3C//DTD SVG 1.1//EN" "http://www.w3.org/Graphics/SVG/1.1/DTD/svg11.dtd"><svg width="100%" height="100%" viewBox="0 0 1000 314" version="1.1" xmlns="http://www.w3.org/2000/svg" xmlns:xlink="http://www.w3.org/1999/xlink" xml:space="preserve" xmlns:serif="http://www.serif.com/" style="fill-rule:evenodd;clip-rule:evenodd;stroke-linejoin:round;stroke-miterlimit:2;"><rect id="Artboard1" x="0" y="0" width="1000" height="314" style="fill:none;"/><g transform="matrix(0.513136,0,0,0.513136,-46.333771,-108.939071)"><g><g transform="matrix(252.68439,0,0,252.68439,112,422)"><path d="M0.704,-0.054c-0.04,0.018 -0.083,0.034 -0.13,0.048c-0.047,0.014 -0.093,0.02 -0.136,0.02c-0.057,0 -0.109,-0.008 -0.156,-0.023c-0.047,-0.016 -0.087,-0.039 -0.121,-0.07c-0.034,-0.032 -0.059,-0.071 -0.078,-0.118c-0.018,-0.047 -0.027,-0.103 -0.027,-0.166c0,-0.116 0.034,-0.208 0.102,-0.275c0.068,-0.067 0.161,-0.101 0.28,-0.101c0.041,0 0.084,0.005 0.127,0.015c0.043,0.01 0.09,0.027 0.139,0.051l0,0.115l-0.009,0c-0.01,-0.008 -0.025,-0.018 -0.044,-0.031c-0.019,-0.013 -0.038,-0.023 -0.057,-0.032c-0.022,-0.01 -0.048,-0.018 -0.076,-0.025c-0.028,-0.007 -0.061,-0.01 -0.097,-0.01c-0.081,0 -0.146,0.026 -0.193,0.078c-0.047,0.052 -0.071,0.123 -0.071,0.212c0,0.094 0.025,0.167 0.074,0.219c0.049,0.052 0.117,0.078 0.202,0.078c0.031,0 0.062,-0.003 0.094,-0.009c0.031,-0.006 0.058,-0.014 0.082,-0.024l0,-0.178l-0.195,0l0,-0.085l0.291,0l0,0.312Z" style="fill-rule:nonzero;"/></g><g transform="matrix(252.68439,0,0,252.68439,307.929107,422)"><path d="M0.577,-0l-0.479,-0l0,-0.727l0.479,0l0,0.086l-0.382,0l0,0.199l0.382,0l0,0.086l-0.382,0l0,0.27l0.382,0l0,0.086Z" style="fill-rule:nonzero;"/></g><g transform="matrix(252.68439,0,0,252.68439,467.707566,422)"><path d="M0.671,-0l-0.103,-0l-0.071,-0.203l-0.314,0l-0.071,0.203l-0.098,-0l0.265,-0.727l0.129,0l0.265,0.727Zm-0.204,-0.286l-0.127,-0.357l-0.128,0.357l0.255,0Z" style="fill-rule:nonzero;"/></g><g transform="matrix(252.68439,0,0,252.68439,640.441036,422)"><path d="M0.699,-0l-0.125,-0l-0.243,-0.289l-0.136,0l0,0.289l-0.097,-0l0,-0.727l0.204,0c0.044,0 0.081,0.003 0.11,0.009c0.029,0.006 0.056,0.016 0.079,0.031c0.026,0.017 0.047,0.038 0.062,0.063c0.015,0.025 0.022,0.057 0.022,0.096c0,0.052 -0.013,0.096 -0.04,0.132c-0.026,0.035 -0.063,0.062 -0.109,0.08l0.273,0.318Zm-0.226,-0.522c0,-0.021 -0.004,-0.039 -0.011,-0.055c-0.007,-0.016 -0.019,-0.03 -0.036,-0.041c-0.014,-0.009 -0.031,-0.016 -0.05,-0.02c-0.019,-0.004 -0.042,-0.006 -0.068,-0.006l-0.114,0l0,0.274l0.098,0c0.031,0 0.057,-0.003 0.08,-0.008c0.023,-0.005 0.042,-0.015 0.058,-0.03c0.015,-0.014 0.025,-0.029 0.032,-0.047c0.007,-0.018 0.01,-0.04 0.01,-0.068Z" style="fill-rule:nonzero;"/></g></g></g><g><path d="M206.781,298.716l-45.09,0l0,-117.684l-32.578,76.371l-31.28,0l-32.578,-76.371l0,117.684l-42.73,0l0,-175.758l52.645,0l39.543,88.174l39.425,-88.174l52.645,0l0,175.758Z" style="fill:#f0c300;fill-rule:nonzero;"/><path d="M616.963,298.716l-43.674,0l-74.6,-120.635l0,120.635l-41.549,0l0,-175.758l54.179,0l64.095,100.686l0,-100.686l41.549,0l0,175.758Z" style="fill:#f0c300;fill-rule:nonzero;"/><path d="M788.944,298.716l-127.127,0l0,-175.758l127.127,0l0,33.995l-82.036,0l0,30.336l76.134,0l0,33.995l-76.134,0l0,43.438l82.036,0l0,33.995Z" style="fill:#f0c300;fill-rule:nonzero;"/><path d="M981.582,122.958l-64.803,107.769l0,67.99l-45.327,0l0,-65.865l-65.865,-109.893l51.465,0l38.008,67.99l36.71,-67.99l49.812,0Z" style="fill:#f0c300;fill-rule:nonzero;"/></g><path d="M342.243,119.728l2.916,14.197c5.644,0.864 11.175,2.346 16.494,4.42l9.624,-10.837c5.385,2.449 10.521,5.413 15.334,8.853l-4.573,13.753c4.456,3.57 8.505,7.619 12.075,12.075l13.753,-4.573c3.44,4.813 6.404,9.949 8.853,15.334l-10.837,9.624c2.074,5.319 3.556,10.851 4.42,16.494l14.197,2.916c0.572,5.888 0.572,11.818 0,17.706l-14.197,2.916c-0.864,5.644 -2.346,11.175 -4.42,16.494l10.837,9.624c-2.449,5.385 -5.413,10.521 -8.853,15.334l-13.753,-4.573c-3.57,4.456 -7.619,8.505 -12.075,12.075l4.573,13.753c-4.813,3.44 -9.949,6.404 -15.334,8.853l-9.624,-10.837c-5.319,2.074 -10.851,3.556 -16.494,4.42l-2.916,14.197c-5.888,0.572 -11.818,0.572 -17.706,0l-2.916,-14.197c-5.644,-0.864 -11.175,-2.346 -16.494,-4.42l-9.624,10.837c-5.385,-2.449 -10.521,-5.413 -15.334,-8.853l4.573,-13.753c-4.456,-3.57 -8.505,-7.619 -12.075,-12.075l-13.753,4.573c-3.44,-4.813 -6.404,-9.949 -8.853,-15.334l10.837,-9.624c-2.074,-5.319 -3.556,-10.851 -4.42,-16.494l-14.197,-2.916c-0.572,-5.888 -0.572,-11.818 0,-17.706l14.197,-2.916c0.864,-5.644 2.346,-11.175 4.42,-16.494l-10.837,-9.624c2.449,-5.385 5.413,-10.521 8.853,-15.334l13.753,4.573c3.57,-4.456 7.619,-8.505 12.075,-12.075l-4.573,-13.753c4.813,-3.44 9.949,-6.404 15.334,-8.853l9.624,10.837c5.319,-2.074 10.851,-3.556 16.494,-4.42l2.916,-14.197c5.888,-0.572 11.818,-0.572 17.706,0Zm-8.853,44.508c25.72,0 46.601,20.881 46.601,46.601c0,25.72 -20.881,46.601 -46.601,46.601c-25.72,0 -46.601,-20.881 -46.601,-46.601c0,-25.72 20.881,-46.601 46.601,-46.601Z" style="fill:#f0c300;"/><path d="M365.235,224.811c0,5.95 -2.5,11.055 -7.499,15.315c-5,4.26 -11.636,6.672 -19.91,7.235l0,19.171l-9.189,0l0,-18.854c-3.943,-0.035 -8.503,-0.511 -13.678,-1.426c-5.176,-0.915 -9.224,-2.06 -12.147,-3.433l0,-15.421l2.377,0c3.239,1.76 6.962,3.169 11.17,4.225c4.207,1.056 8.388,1.743 12.543,2.06l0,-14.47l-5.123,-1.162c-3.239,-0.739 -6.223,-1.602 -8.952,-2.588c-2.729,-0.986 -5.079,-2.289 -7.05,-3.908c-1.972,-1.62 -3.503,-3.618 -4.595,-5.994c-1.091,-2.377 -1.637,-5.308 -1.637,-8.793c0,-5.246 2.394,-9.735 7.182,-13.467c4.788,-3.732 11.425,-5.985 19.91,-6.76l0,-12.305l9.189,0l0,12.2c3.239,0.141 7.033,0.599 11.381,1.373c4.348,0.775 7.772,1.672 10.272,2.693l0,15.21l-2.324,0c-2.5,-1.444 -5.404,-2.641 -8.714,-3.591c-3.31,-0.951 -6.848,-1.549 -10.615,-1.796l0,13.414l4.225,0.845c7.957,1.549 13.81,3.899 17.56,7.05c3.75,3.151 5.624,7.543 5.624,13.177Zm-35.754,-22.234l0,-12.252c-2.324,0.176 -4.41,0.766 -6.258,1.769c-1.848,1.003 -2.773,2.421 -2.773,4.251c0,1.655 0.599,2.94 1.796,3.855c1.197,0.915 3.609,1.708 7.235,2.377Zm16.583,24.293c0,-2.042 -0.942,-3.565 -2.825,-4.568c-1.884,-1.003 -3.758,-1.646 -5.624,-1.928l0,13.097c2.324,-0.317 4.313,-0.995 5.968,-2.033c1.655,-1.039 2.482,-2.561 2.482,-4.568Z" style="fill:#f0c300;fill-rule:nonzero;"/></svg>