<?xml version="1.0" encoding="UTF-8" standalone="no"?><!DOCTYPE svg PUBLIC "-//W3C//DTD SVG 1.1//EN" "http://www.w3.org/Graphics/SVG/1.1/DTD/svg11.dtd"><svg width="100%" height="100%" viewBox="0 0 1000 1000" version="1.1" xmlns="http://www.w3.org/2000/svg" xmlns:xlink="http://www.w3.org/1999/xlink" xml:space="preserve" xmlns:serif="http://www.serif.com/" style="fill-rule:evenodd;clip-rule:evenodd;stroke-linejoin:round;stroke-miterlimit:2;"><rect id="Artboard2" x="0" y="0" width="1000" height="1000" style="fill:none;"/><path d="M548.357,2.344l15.929,77.546c30.827,4.717 61.041,12.813 90.096,24.141l52.568,-59.193c29.416,13.375 57.466,29.569 83.757,48.357l-24.978,75.121c24.338,19.499 46.456,41.617 65.955,65.955l75.121,-24.978c18.788,26.291 34.983,54.341 48.357,83.757l-59.193,52.568c11.328,29.055 19.424,59.269 24.141,90.096l77.546,15.929c3.125,32.162 3.125,64.552 0,96.714l-77.546,15.929c-4.717,30.827 -12.813,61.041 -24.141,90.096l59.193,52.568c-13.375,29.416 -29.569,57.466 -48.357,83.757l-75.121,-24.978c-19.499,24.338 -41.617,46.456 -65.955,65.955l24.978,75.121c-26.291,18.788 -54.341,34.983 -83.757,48.357l-52.568,-59.193c-29.055,11.328 -59.269,19.424 -90.096,24.141l-15.929,77.546c-32.162,3.125 -64.552,3.125 -96.714,0l-15.929,-77.546c-30.827,-4.717 -61.041,-12.813 -90.096,-24.141l-52.568,59.193c-29.416,-13.375 -57.466,-29.569 -83.757,-48.357l24.978,-75.121c-24.338,-19.499 -46.456,-41.617 -65.955,-65.955l-75.121,24.978c-18.788,-26.291 -34.983,-54.341 -48.357,-83.757l59.193,-52.568c-11.328,-29.055 -19.424,-59.269 -24.141,-90.096l-77.546,-15.929c-3.125,-32.162 -3.125,-64.552 0,-96.714l77.546,-15.929c4.717,-30.827 12.813,-61.041 24.141,-90.096l-59.193,-52.568c13.375,-29.416 29.569,-57.466 48.357,-83.757l75.121,24.978c19.499,-24.338 41.617,-46.456 65.955,-65.955l-24.978,-75.121c26.291,-18.788 54.341,-34.983 83.757,-48.357l52.568,59.193c29.055,-11.328 59.269,-19.424 90.096,-24.141l15.929,-77.546c32.162,-3.125 64.552,-3.125 96.714,0Zm-48.357,243.111c140.487,0 254.545,114.058 254.545,254.545c0,140.487 -114.058,254.545 -254.545,254.545c-140.487,0 -254.545,-114.058 -254.545,-254.545c-0,-140.487 114.058,-254.545 254.545,-254.545Z" style="fill:#f0c300;"/><path d="M682.272,562.922c0,34.056 -14.308,63.276 -42.923,87.66c-28.615,24.384 -66.601,38.187 -113.958,41.412l0,109.726l-52.596,0l0,-107.912c-22.57,-0.202 -48.666,-2.922 -78.289,-8.161c-29.623,-5.239 -52.797,-11.789 -69.523,-19.648l0,-88.264l13.602,0c18.54,10.076 39.85,18.137 63.931,24.182c24.081,6.046 48.011,9.975 71.79,11.789l0,-82.823l-29.321,-6.65c-18.54,-4.232 -35.618,-9.169 -51.236,-14.811c-15.618,-5.642 -29.069,-13.099 -40.354,-22.368c-11.285,-9.27 -20.051,-20.706 -26.298,-34.308c-6.247,-13.602 -9.371,-30.379 -9.371,-50.329c0,-30.026 13.703,-55.719 41.109,-77.08c27.406,-21.361 65.392,-34.258 113.958,-38.691l0,-70.43l52.596,0l0,69.826c18.54,0.806 40.253,3.426 65.14,7.859c24.887,4.433 44.485,9.572 58.793,15.416l0,87.055l-13.3,0c-14.308,-8.262 -30.933,-15.114 -49.875,-20.555c-18.943,-5.441 -39.195,-8.867 -60.757,-10.277l0,76.778l24.182,4.836c45.543,8.867 79.045,22.318 100.506,40.354c21.462,18.036 32.192,43.175 32.192,75.418Zm-204.64,-127.258l0,-70.128c-13.3,1.008 -25.24,4.383 -35.82,10.126c-10.58,5.743 -15.869,13.854 -15.869,24.333c0,9.471 3.426,16.827 10.277,22.066c6.852,5.239 20.655,9.774 41.412,13.602Zm94.914,139.047c0,-11.688 -5.391,-20.404 -16.172,-26.147c-10.781,-5.743 -21.512,-9.421 -32.192,-11.033l0,74.964c13.3,-1.814 24.686,-5.693 34.157,-11.638c9.471,-5.945 14.207,-14.66 14.207,-26.147Z" style="fill:#f0c300;fill-rule:nonzero;"/></svg>