<?xml version="1.0" encoding="UTF-8" standalone="no"?><!DOCTYPE svg PUBLIC "-//W3C//DTD SVG 1.1//EN" "http://www.w3.org/Graphics/SVG/1.1/DTD/svg11.dtd"><svg width="100%" height="100%" viewBox="0 0 240 76" version="1.1" xmlns="http://www.w3.org/2000/svg" xmlns:xlink="http://www.w3.org/1999/xlink" xml:space="preserve" xmlns:serif="http://www.serif.com/" style="fill-rule:evenodd;clip-rule:evenodd;stroke-linejoin:round;stroke-miterlimit:2;"><g transform="matrix(0.123153,0,0,0.123153,-11.120105,-26.145377)"><g><g transform="matrix(252.68439,0,0,252.68439,112,422)"><path d="M0.704,-0.054c-0.04,0.018 -0.083,0.034 -0.13,0.048c-0.047,0.014 -0.093,0.02 -0.136,0.02c-0.057,0 -0.109,-0.008 -0.156,-0.023c-0.047,-0.016 -0.087,-0.039 -0.121,-0.07c-0.034,-0.032 -0.059,-0.071 -0.078,-0.118c-0.018,-0.047 -0.027,-0.103 -0.027,-0.166c0,-0.116 0.034,-0.208 0.102,-0.275c0.068,-0.067 0.161,-0.101 0.28,-0.101c0.041,0 0.084,0.005 0.127,0.015c0.043,0.01 0.09,0.027 0.139,0.051l0,0.115l-0.009,0c-0.01,-0.008 -0.025,-0.018 -0.044,-0.031c-0.019,-0.013 -0.038,-0.023 -0.057,-0.032c-0.022,-0.01 -0.048,-0.018 -0.076,-0.025c-0.028,-0.007 -0.061,-0.01 -0.097,-0.01c-0.081,0 -0.146,0.026 -0.193,0.078c-0.047,0.052 -0.071,0.123 -0.071,0.212c0,0.094 0.025,0.167 0.074,0.219c0.049,0.052 0.117,0.078 0.202,0.078c0.031,0 0.062,-0.003 0.094,-0.009c0.031,-0.006 0.058,-0.014 0.082,-0.024l0,-0.178l-0.195,0l0,-0.085l0.291,0l0,0.312Z" style="fill-rule:nonzero;"/></g><g transform="matrix(252.68439,0,0,252.68439,307.929107,422)"><path d="M0.577,-0l-0.479,-0l0,-0.727l0.479,0l0,0.086l-0.382,0l0,0.199l0.382,0l0,0.086l-0.382,0l0,0.27l0.382,0l0,0.086Z" style="fill-rule:nonzero;"/></g><g transform="matrix(252.68439,0,0,252.68439,467.707566,422)"><path d="M0.671,-0l-0.103,-0l-0.071,-0.203l-0.314,0l-0.071,0.203l-0.098,-0l0.265,-0.727l0.129,0l0.265,0.727Zm-0.204,-0.286l-0.127,-0.357l-0.128,0.357l0.255,0Z" style="fill-rule:nonzero;"/></g><g transform="matrix(252.68439,0,0,252.68439,640.441036,422)"><path d="M0.699,-0l-0.125,-0l-0.243,-0.289l-0.136,0l0,0.289l-0.097,-0l0,-0.727l0.204,0c0.044,0 0.081,0.003 0.11,0.009c0.029,0.006 0.056,0.016 0.079,0.031c0.026,0.017 0.047,0.038 0.062,0.063c0.015,0.025 0.022,0.057 0.022,0.096c0,0.052 -0.013,0.096 -0.04,0.132c-0.026,0.035 -0.063,0.062 -0.109,0.08l0.273,0.318Zm-0.226,-0.522c0,-0.021 -0.004,-0.039 -0.011,-0.055c-0.007,-0.016 -0.019,-0.03 -0.036,-0.041c-0.014,-0.009 -0.031,-0.016 -0.05,-0.02c-0.019,-0.004 -0.042,-0.006 -0.068,-0.006l-0.114,0l0,0.274l0.098,0c0.031,0 0.057,-0.003 0.08,-0.008c0.023,-0.005 0.042,-0.015 0.058,-0.03c0.015,-0.014 0.025,-0.029 0.032,-0.047c0.007,-0.018 0.01,-0.04 0.01,-0.068Z" style="fill-rule:nonzero;"/></g></g></g><g><path d="M49.627,71.692l-10.822,0l0,-28.244l-7.819,18.329l-7.507,0l-7.819,-18.329l0,28.244l-10.255,0l0,-42.182l12.635,0l9.49,21.162l9.462,-21.162l12.635,0l0,42.182Z" style="fill:#f0c300;fill-rule:nonzero;"/><path d="M148.071,71.692l-10.482,0l-17.904,-28.952l0,28.952l-9.972,0l0,-42.182l13.003,0l15.383,24.165l0,-24.165l9.972,0l0,42.182Z" style="fill:#f0c300;fill-rule:nonzero;"/><path d="M189.347,71.692l-30.51,0l0,-42.182l30.51,0l0,8.159l-19.689,0l0,7.281l18.272,0l0,8.159l-18.272,0l0,10.425l19.689,0l0,8.159Z" style="fill:#f0c300;fill-rule:nonzero;"/><path d="M235.58,29.51l-15.553,25.864l0,16.318l-10.878,0l0,-15.808l-15.808,-26.374l12.351,0l9.122,16.318l8.81,-16.318l11.955,0Z" style="fill:#f0c300;fill-rule:nonzero;"/></g><path d="M82.138,28.735l0.7,3.407c1.354,0.207 2.682,0.563 3.959,1.061l2.31,-2.601c1.292,0.588 2.525,1.299 3.68,2.125l-1.098,3.301c1.069,0.857 2.041,1.829 2.898,2.898l3.301,-1.098c0.826,1.155 1.537,2.388 2.125,3.68l-2.601,2.31c0.498,1.277 0.853,2.604 1.061,3.959l3.407,0.7c0.137,1.413 0.137,2.836 0,4.249l-3.407,0.7c-0.207,1.354 -0.563,2.682 -1.061,3.959l2.601,2.31c-0.588,1.292 -1.299,2.525 -2.125,3.68l-3.301,-1.098c-0.857,1.069 -1.829,2.041 -2.898,2.898l1.098,3.301c-1.155,0.826 -2.388,1.537 -3.68,2.125l-2.31,-2.601c-1.277,0.498 -2.604,0.853 -3.959,1.061l-0.7,3.407c-1.413,0.137 -2.836,0.137 -4.249,0l-0.7,-3.407c-1.354,-0.207 -2.682,-0.563 -3.959,-1.061l-2.31,2.601c-1.292,-0.588 -2.525,-1.299 -3.68,-2.125l1.098,-3.301c-1.069,-0.857 -2.041,-1.829 -2.898,-2.898l-3.301,1.098c-0.826,-1.155 -1.537,-2.388 -2.125,-3.68l2.601,-2.31c-0.498,-1.277 -0.853,-2.604 -1.061,-3.959l-3.407,-0.7c-0.137,-1.413 -0.137,-2.836 0,-4.249l3.407,-0.7c0.207,-1.354 0.563,-2.682 1.061,-3.959l-2.601,-2.31c0.588,-1.292 1.299,-2.525 2.125,-3.68l3.301,1.098c0.857,-1.069 1.829,-2.041 2.898,-2.898l-1.098,-3.301c1.155,-0.826 2.388,-1.537 3.68,-2.125l2.31,2.601c1.277,-0.498 2.604,-0.853 3.959,-1.061l0.7,-3.407c1.413,-0.137 2.836,-0.137 4.249,0Zm-2.125,10.682c6.173,0 11.184,5.012 11.184,11.184c0,6.173 -5.012,11.184 -11.184,11.184c-6.173,0 -11.184,-5.012 -11.184,-11.184c0,-6.173 5.012,-11.184 11.184,-11.184Z" style="fill:#f0c300;"/></svg>